<svg width="60" height="60" viewBox="0 0 60 60" fill="none" xmlns="http://www.w3.org/2000/svg">
<rect width="60" height="60" fill="#40FFE4"/>
<path d="M23.1143 40V37.3352L30.1839 30.4048C30.8601 29.7221 31.4235 29.1155 31.8743 28.5852C32.325 28.0549 32.6631 27.5412 32.8885 27.044C33.1139 26.5469 33.2266 26.0166 33.2266 25.4531C33.2266 24.8101 33.0807 24.2599 32.7891 23.8026C32.4974 23.3385 32.0964 22.9806 31.5859 22.7287C31.0755 22.4768 30.4955 22.3509 29.8459 22.3509C29.1764 22.3509 28.5897 22.4901 28.0859 22.7685C27.5821 23.0402 27.1911 23.428 26.9126 23.9318C26.6409 24.4356 26.505 25.0355 26.505 25.7315H22.995C22.995 24.4389 23.29 23.3153 23.88 22.3608C24.4699 21.4062 25.282 20.6671 26.3161 20.1435C27.3568 19.6198 28.55 19.358 29.8956 19.358C31.2611 19.358 32.4609 19.6132 33.495 20.1236C34.5291 20.634 35.3312 21.3333 35.9013 22.2216C36.478 23.1098 36.7663 24.1241 36.7663 25.2642C36.7663 26.0265 36.6205 26.7756 36.3288 27.5114C36.0372 28.2472 35.5234 29.0625 34.7876 29.9574C34.0585 30.8523 33.0343 31.9361 31.7152 33.2088L28.2053 36.7784V36.9176H37.0746V40H23.1143Z" fill="#121212"/>
</svg>
