<svg width="60" height="60" viewBox="0 0 60 60" fill="none" xmlns="http://www.w3.org/2000/svg">
<rect width="60" height="60" fill="#40FFE4"/>
<path d="M29.9988 40.2784C28.5669 40.2784 27.2942 40.0331 26.1806 39.5426C25.0736 39.0521 24.1986 38.3693 23.5556 37.4943C22.9126 36.6193 22.5712 35.6084 22.5314 34.4616H26.2701C26.3032 35.0118 26.4855 35.4924 26.8169 35.9034C27.1484 36.3078 27.5892 36.6226 28.1394 36.848C28.6896 37.0734 29.306 37.1861 29.9888 37.1861C30.718 37.1861 31.3643 37.0601 31.9277 36.8082C32.4912 36.5497 32.932 36.1918 33.2502 35.7344C33.5684 35.277 33.7241 34.75 33.7175 34.1534C33.7241 33.5369 33.565 32.9934 33.2402 32.5227C32.9154 32.0521 32.4448 31.6842 31.8283 31.419C31.2185 31.1539 30.4827 31.0213 29.6209 31.0213H27.8212V28.1776H29.6209C30.3302 28.1776 30.95 28.0549 31.4803 27.8097C32.0172 27.5644 32.4382 27.2197 32.7431 26.7756C33.048 26.3248 33.1971 25.8045 33.1905 25.2145C33.1971 24.6378 33.0679 24.1373 32.8027 23.7131C32.5442 23.2822 32.1763 22.9474 31.699 22.7088C31.2284 22.4702 30.6749 22.3509 30.0385 22.3509C29.4154 22.3509 28.8387 22.4635 28.3084 22.6889C27.7781 22.9143 27.3506 23.2358 27.0257 23.6534C26.7009 24.0644 26.5286 24.5549 26.5087 25.125H22.959C22.9855 23.9848 23.3136 22.9839 23.9434 22.1222C24.5797 21.2538 25.4282 20.5777 26.4888 20.0938C27.5494 19.6032 28.7393 19.358 30.0584 19.358C31.4173 19.358 32.5972 19.6132 33.5982 20.1236C34.6058 20.6274 35.3846 21.3068 35.9348 22.1619C36.485 23.017 36.7601 23.9616 36.7601 24.9957C36.7668 26.1425 36.4287 27.1037 35.7459 27.8793C35.0698 28.6548 34.1815 29.1619 33.0811 29.4006V29.5597C34.513 29.7585 35.61 30.2888 36.3723 31.1506C37.1413 32.0057 37.5224 33.0696 37.5158 34.3423C37.5158 35.4825 37.191 36.5033 36.5414 37.4048C35.8984 38.2997 35.0101 39.0024 33.8766 39.5128C32.7497 40.0232 31.4571 40.2784 29.9988 40.2784Z" fill="#121212"/>
</svg>
